<?xml version="1.0" encoding="utf-8"?>
<!-- Generator: Adobe Illustrator 27.5.0, SVG Export Plug-In . SVG Version: 6.00 Build 0)  -->
<svg version="1.1" xmlns="http://www.w3.org/2000/svg" xmlns:xlink="http://www.w3.org/1999/xlink" x="0px" y="0px"
	 viewBox="0 0 499.999 500" style="enable-background:new 0 0 499.999 500;" xml:space="preserve">
<g id="Background_Complete">
	<g>
		<g>
			<g>
				<g>
					<path style="fill:#E0E0E0;" d="M466.889,316.203H303.026v-94.845h163.863V316.203z M304.026,315.203h161.863v-92.845H304.026
						V315.203z"/>
				</g>
				<g>
					<rect x="324.954" y="271.928" style="fill:#F0F0F0;" width="108.135" height="3.172"/>
				</g>
				<g>
					<rect x="324.954" y="283.75" style="fill:#F0F0F0;" width="115.582" height="3.461"/>
				</g>
				<g>
					<rect x="324.954" y="295.71" style="fill:#F0F0F0;" width="115.582" height="3.461"/>
				</g>
				<g>
					<rect x="324.954" y="254.759" style="fill:#F0F0F0;" width="37.792" height="8.229"/>
				</g>
				<g>
					<rect x="303.526" y="221.857" style="fill:#E0E0E0;" width="162.863" height="15.099"/>
				</g>
			</g>
			<g>
				<g>
					<g>
						<path style="fill:#FFFFFF;" d="M453.857,234.7c-0.208-0.199,1.891-2.73,4.686-5.653c2.797-2.924,5.232-5.132,5.44-4.933
							c0.208,0.199-1.891,2.73-4.688,5.653C456.5,232.69,454.065,234.899,453.857,234.7z"/>
					</g>
				</g>
				<g>
					<g>
						<path style="fill:#FFFFFF;" d="M463.984,234.7c-0.208,0.199-2.643-2.01-5.439-4.933c-2.798-2.924-4.896-5.455-4.688-5.653
							s2.642,2.009,5.439,4.933C462.093,231.97,464.192,234.501,463.984,234.7z"/>
					</g>
				</g>
			</g>
		</g>
		<g>
			<g>
				<g>
					<rect x="102.363" y="34.054" style="fill:#E6E6E6;" width="162.864" height="93.845"/>
				</g>
				<g>
					<rect x="123.791" y="84.125" style="fill:#F0F0F0;" width="108.134" height="3.172"/>
				</g>
				<g>
					<rect x="123.791" y="95.947" style="fill:#F0F0F0;" width="115.582" height="3.46"/>
				</g>
				<g>
					<rect x="123.791" y="107.906" style="fill:#F0F0F0;" width="115.582" height="3.46"/>
				</g>
				<g>
					<rect x="123.791" y="66.956" style="fill:#F0F0F0;" width="37.792" height="8.229"/>
				</g>
				<g>
					<rect x="102.363" y="34.054" style="fill:#E0E0E0;" width="162.864" height="15.098"/>
				</g>
			</g>
			<g>
				<g>
					<g>
						<path style="fill:#FFFFFF;" d="M252.136,46.825c-0.208-0.199,1.891-2.73,4.686-5.653c2.797-2.924,5.232-5.132,5.44-4.934
							c0.208,0.199-1.891,2.729-4.688,5.653C254.78,44.814,252.344,47.023,252.136,46.825z"/>
					</g>
				</g>
				<g>
					<g>
						<path style="fill:#FFFFFF;" d="M262.263,46.825c-0.208,0.199-2.643-2.01-5.439-4.933c-2.798-2.924-4.895-5.455-4.688-5.653
							c0.208-0.199,2.643,2.01,5.439,4.934C260.373,44.095,262.471,46.626,262.263,46.825z"/>
					</g>
				</g>
			</g>
		</g>
		<g>
			<g>
				<path style="fill:#E0E0E0;" d="M203.544,208.39H39.681v-94.845h163.863V208.39z M40.681,207.39h161.863v-92.845H40.681V207.39z"
					/>
			</g>
			<g>
				<rect x="61.608" y="164.115" style="fill:#F0F0F0;" width="108.135" height="3.172"/>
			</g>
			<g>
				<rect x="61.608" y="175.938" style="fill:#F0F0F0;" width="115.583" height="3.46"/>
			</g>
			<g>
				<rect x="61.608" y="187.897" style="fill:#F0F0F0;" width="115.583" height="3.46"/>
			</g>
			<g>
				<rect x="61.608" y="146.946" style="fill:#F0F0F0;" width="37.792" height="8.23"/>
			</g>
			<g>
				<rect x="40.181" y="114.045" style="fill:#E0E0E0;" width="162.863" height="15.099"/>
			</g>
		</g>
		<g>
			<rect x="200.352" y="230.124" style="fill:#E6E6E6;" width="192.304" height="172.156"/>
		</g>
		<g>
			<g>
				<rect x="59.381" y="175.892" style="fill:#F0F0F0;" width="150.638" height="156.509"/>
			</g>
			<g>
				<rect x="59.381" y="175.892" style="fill:#E0E0E0;" width="150.638" height="17.053"/>
			</g>
			<g>
				<path style="fill:#FFFFFF;" d="M71.821,184.244c0,1.826-1.416,3.306-3.163,3.306c-1.747,0-3.163-1.48-3.163-3.306
					s1.416-3.306,3.163-3.306C70.405,180.938,71.821,182.418,71.821,184.244z"/>
			</g>
			<g>
				<path style="fill:#FFFFFF;" d="M84.649,184.244c0,1.826-1.416,3.306-3.163,3.306c-1.747,0-3.163-1.48-3.163-3.306
					s1.416-3.306,3.163-3.306C83.233,180.938,84.649,182.418,84.649,184.244z"/>
			</g>
			<g>
				<path style="fill:#FFFFFF;" d="M97.478,184.244c0,1.826-1.416,3.306-3.163,3.306c-1.747,0-3.163-1.48-3.163-3.306
					s1.416-3.306,3.163-3.306C96.062,180.938,97.478,182.418,97.478,184.244z"/>
			</g>
		</g>
		<g>
			<g>
				<rect x="253.081" y="68.285" style="fill:#F0F0F0;" width="192.304" height="191.661"/>
			</g>
			<g>
				<rect x="253.081" y="68.285" style="fill:#E0E0E0;" width="192.304" height="22.45"/>
			</g>
			<g>
				<path style="fill:#FFFFFF;" d="M269.458,79.279c0,2.404-1.864,4.353-4.164,4.353c-2.299,0-4.163-1.949-4.163-4.353
					c0-2.404,1.864-4.352,4.163-4.352C267.593,74.927,269.458,76.876,269.458,79.279z"/>
			</g>
			<g>
				<path style="fill:#FFFFFF;" d="M285.128,76.336c1.699,1.7,1.759,4.396,0.133,6.021c-1.626,1.626-4.322,1.566-6.021-0.133
					c-1.699-1.7-1.76-4.396-0.134-6.022C280.731,74.576,283.427,74.636,285.128,76.336z"/>
			</g>
			<g>
				<path style="fill:#FFFFFF;" d="M303.236,79.279c0,2.404-1.864,4.353-4.164,4.353c-2.3,0-4.163-1.949-4.163-4.353
					c0-2.404,1.863-4.352,4.163-4.352C301.372,74.927,303.236,76.876,303.236,79.279z"/>
			</g>
		</g>
	</g>
</g>
<g id="Background_Simple" style="display:none;">
	<path style="display:inline;fill:#F0F0F0;" d="M359.366,131.375c-36.617-31.955-86.189-0.009-134.343,67.343
		c-48.153,67.352-71.066,39.025-112.032,68.686c-40.966,29.66-51.858,151.252,92.382,139.434
		C349.612,395.02,455.104,214.923,359.366,131.375z"/>
</g>
<g id="Floor">
	<g>
		<path style="fill:#263238;" d="M403.842,453.131c0,0.143-69.439,0.261-155.077,0.261c-85.667,0-155.092-0.117-155.092-0.261
			c0-0.144,69.424-0.261,155.092-0.261C334.403,452.871,403.842,452.988,403.842,453.131z"/>
	</g>
</g>
<g id="Plant">
	<g>
		<g>
			<g>
				<path style="fill:#E8505B;" d="M336.179,330.712c-15.448-10.793-18.953-30.826-18.342-48.834
					c0.102-3.006-0.229-6.175,1.201-8.813c1.431-2.637,4.767-4.439,7.458-3.173c2.232,1.051,3.205,3.647,4.454,5.795
					c1.661,2.857,4.137,5.222,7.05,6.733c1.914,0.993,4.282,1.601,6.172,0.559c2.593-1.431,2.898-5.013,2.88-8.003
					c-0.035-5.572-0.069-11.145-0.104-16.716c-0.019-2.989-0.027-6.042,0.902-8.879c0.93-2.837,2.984-5.473,5.828-6.27
					c2.845-0.796,6.361,0.843,6.962,3.77c0.25,1.218,0.002,2.482,0.085,3.723c0.083,1.241,0.661,2.614,1.84,2.96
					c1.193,0.351,2.39-0.497,3.283-1.372c3.086-3.018,5.18-6.907,7.137-10.774s3.856-7.826,6.656-11.119
					c2.8-3.293,6.673-5.901,10.954-6.144c4.282-0.242,8.844,2.4,9.926,6.604c1.085,4.215-1.374,8.491-4.05,11.903
					c-3.97,5.062-8.666,9.539-13.895,13.245c-0.942,0.669-1.964,1.392-2.324,2.499c-0.649,1.993,1.239,3.973,3.207,4.628
					c2.228,0.742,4.646,0.511,6.977,0.785c2.331,0.274,4.857,1.303,5.738,3.506c1.225,3.056-1.331,6.259-3.846,8.356
					c-5.035,4.201-10.785,7.52-16.919,9.767c-2.199,0.805-4.514,1.511-6.287,3.056c-1.773,1.546-2.844,4.232-1.772,6.338
					c1.072,2.108,3.822,2.782,6.126,2.354c2.303-0.427,4.365-1.678,6.561-2.506c4.108-1.551,9.414-1.268,12.046,2.283
					c1.729,2.334,1.882,5.584,1.007,8.366c-0.874,2.782-2.648,5.179-4.532,7.389c-6.585,7.726-15.015,13.945-24.546,17.25
					C354.482,333.282,345.651,334.176,336.179,330.712"/>
			</g>
		</g>
		<g>
			<g>
				<g>
					<path style="fill:#263238;" d="M396.202,226.658c0.007,0.007-0.092,0.104-0.29,0.284c-0.221,0.197-0.515,0.459-0.888,0.792
						c-0.783,0.692-1.938,1.713-3.389,3.068c-2.905,2.701-6.986,6.765-11.419,12.325c-2.225,2.771-4.536,5.908-6.957,9.321
						c-2.415,3.419-4.973,7.088-7.517,11.046c-2.544,3.956-5.091,8.196-7.376,12.777c-1.152,2.285-2.18,4.677-3.229,7.115
						c-1.043,2.438-2.101,4.911-3.172,7.414c-4.248,10.025-7.984,19.717-10.654,28.77c-2.685,9.045-4.283,17.428-4.982,24.531
						c-0.717,7.106-0.57,12.906-0.28,16.886c0.156,1.99,0.309,3.535,0.449,4.577c0.058,0.5,0.103,0.893,0.138,1.189
						c0.028,0.268,0.038,0.407,0.029,0.409c-0.01,0.001-0.038-0.134-0.085-0.4c-0.047-0.293-0.111-0.685-0.192-1.182
						c-0.176-1.039-0.363-2.582-0.553-4.575c-0.355-3.983-0.563-9.804,0.107-16.941c0.652-7.134,2.217-15.559,4.885-24.64
						c2.65-9.088,6.382-18.809,10.634-28.842c1.072-2.504,2.132-4.979,3.176-7.417c1.048-2.432,2.087-4.844,3.249-7.14
						c2.305-4.604,4.871-8.854,7.434-12.811c2.561-3.961,5.137-7.626,7.569-11.035c2.441-3.406,4.776-6.537,7.026-9.3
						c4.484-5.546,8.623-9.582,11.577-12.236c1.475-1.333,2.652-2.329,3.46-2.994c0.389-0.315,0.693-0.563,0.923-0.75
						C396.085,226.732,396.196,226.65,396.202,226.658z"/>
				</g>
			</g>
		</g>
		<g>
			<g>
				<g>
					<path style="fill:#263238;" d="M358.043,276.003c-0.037,0.006-0.139-0.448-0.292-1.275c-0.157-0.826-0.345-2.028-0.555-3.518
						c-0.423-2.977-0.866-7.107-1.338-11.663c-0.472-4.559-0.973-8.671-1.439-11.633c-0.229-1.481-0.427-2.679-0.574-3.505
						c-0.143-0.827-0.204-1.289-0.167-1.298c0.037-0.008,0.169,0.438,0.376,1.253c0.212,0.814,0.469,2.004,0.747,3.482
						c0.567,2.956,1.132,7.078,1.603,11.641c0.454,4.497,0.864,8.565,1.178,11.674c0.15,1.403,0.278,2.586,0.381,3.535
						C358.05,275.532,358.082,275.998,358.043,276.003z"/>
				</g>
			</g>
		</g>
		<g>
			<g>
				<g>
					<path style="fill:#263238;" d="M396.481,268.82c0.001,0.038-0.546,0.102-1.533,0.184c-0.986,0.088-2.414,0.207-4.173,0.411
						c-3.521,0.38-8.365,1.075-13.677,2.076c-5.311,1.011-10.079,2.13-13.504,3.039c-1.717,0.442-3.096,0.838-4.051,1.106
						c-0.954,0.271-1.487,0.404-1.5,0.368c-0.012-0.037,0.5-0.239,1.436-0.575c0.938-0.331,2.304-0.785,4.012-1.278
						c3.408-1.009,8.179-2.192,13.506-3.207c5.327-1.003,10.199-1.64,13.74-1.92c1.77-0.154,3.206-0.215,4.199-0.235
						C395.93,268.772,396.479,268.781,396.481,268.82z"/>
				</g>
			</g>
		</g>
		<g>
			<g>
				<g>
					<path style="fill:#263238;" d="M341.3,318.716c-0.018,0.008-0.107-0.153-0.264-0.469c-0.178-0.376-0.395-0.835-0.657-1.391
						c-0.565-1.21-1.338-2.982-2.264-5.185c-1.854-4.403-4.225-10.566-6.748-17.402c-2.525-6.839-4.835-13.016-6.595-17.451
						c-0.862-2.156-1.572-3.93-2.1-5.248c-0.226-0.572-0.411-1.044-0.564-1.432c-0.123-0.329-0.18-0.506-0.162-0.515
						c0.018-0.007,0.107,0.154,0.264,0.47c0.178,0.376,0.395,0.834,0.657,1.39c0.565,1.21,1.338,2.982,2.264,5.185
						c1.855,4.403,4.225,10.566,6.749,17.405c2.524,6.837,4.834,13.013,6.594,17.449c0.863,2.155,1.572,3.93,2.1,5.247
						c0.226,0.572,0.411,1.045,0.564,1.432C341.261,318.532,341.318,318.708,341.3,318.716z"/>
				</g>
			</g>
		</g>
		<g>
			<g>
				<g>
					<path style="fill:#263238;" d="M392.378,302.254c0.005,0.019-0.17,0.09-0.507,0.209c-0.399,0.134-0.89,0.298-1.483,0.497
						c-1.37,0.444-3.22,1.044-5.47,1.772c-4.618,1.498-10.973,3.64-17.991,6.016c-7.021,2.378-13.401,4.463-18.052,5.865
						c-2.325,0.702-4.212,1.251-5.523,1.603c-0.606,0.159-1.106,0.29-1.513,0.398c-0.348,0.085-0.533,0.12-0.538,0.102
						c-0.005-0.018,0.17-0.09,0.507-0.21c0.398-0.133,0.889-0.297,1.483-0.496c1.37-0.444,3.219-1.043,5.469-1.773
						c4.618-1.497,10.974-3.64,17.994-6.017c7.019-2.377,13.398-4.462,18.049-5.864c2.325-0.702,4.212-1.251,5.524-1.604
						c0.606-0.159,1.105-0.291,1.513-0.397C392.187,302.271,392.372,302.236,392.378,302.254z"/>
				</g>
			</g>
		</g>
	</g>
</g>
<g id="Padlock">
	<g>
		<g>
			<g>
				<path style="fill:#E8505B;" d="M371.541,59.679l-5.153,1.843l-2.203-6.729c-4.064-12.412-17.034-19.053-28.897-14.809
					c-11.87,4.246-18.216,17.797-14.152,30.209l2.203,6.729l-5.17,1.849c-4.02,1.438-6.196,6.072-4.819,10.279l14.336,43.791
					c1.398,4.271,5.837,6.548,9.857,5.11l53.374-19.093c4.085-1.461,6.263-6.106,4.864-10.376l-14.336-43.791
					C380.066,60.484,375.625,58.217,371.541,59.679z M330.86,66.713c-2.227-6.802,1.249-14.23,7.757-16.558
					c6.502-2.326,13.606,1.317,15.833,8.119l2.203,6.73l-23.59,8.438L330.86,66.713z M360.869,105.566l3.661,11.183
					c0.154,0.473-0.116,0.956-0.573,1.12l-5.122,1.832c-0.392,0.14-0.894-0.067-1.048-0.54l-3.661-11.183
					c-3.967-0.168-7.649-2.797-9.027-7.004c-1.77-5.409,0.999-11.323,6.19-13.18c5.188-1.856,10.842,1.044,12.613,6.454
					C365.279,98.455,363.91,102.892,360.869,105.566z"/>
			</g>
		</g>
		<g>
			<path style="fill:#263238;" d="M366.163,61.401c0.049,0.135-9.55,3.729-21.438,8.025c-11.891,4.298-21.567,7.672-21.616,7.537
				c-0.049-0.135,9.548-3.728,21.44-8.026C356.435,64.641,366.114,61.266,366.163,61.401z"/>
		</g>
		<g>
			<g>
				<path style="fill:#263238;" d="M377.497,63.244c0.009-0.003,0.048,0.086,0.115,0.262c0.076,0.204,0.172,0.462,0.291,0.784
					c0.257,0.729,0.614,1.743,1.068,3.031c0.919,2.677,2.227,6.486,3.837,11.178c1.605,4.737,3.512,10.359,5.627,16.6
					c1.045,3.133,2.186,6.388,3.281,9.826c0.506,1.728,0.926,3.575,0.75,5.488c-0.089,0.949-0.347,1.904-0.809,2.768
					c-0.471,0.858-1.128,1.613-1.89,2.228c-1.537,1.229-3.337,1.947-5.075,2.591c-1.745,0.627-3.466,1.245-5.155,1.852
					c-3.38,1.209-6.64,2.376-9.747,3.489c-6.208,2.21-11.802,4.202-16.514,5.88c-4.68,1.646-8.479,2.982-11.148,3.921
					c-1.291,0.442-2.309,0.791-3.039,1.041c-0.326,0.106-0.588,0.191-0.795,0.258c-0.181,0.056-0.274,0.08-0.277,0.071
					c-0.003-0.008,0.085-0.049,0.259-0.121c0.203-0.08,0.459-0.181,0.777-0.307c0.724-0.272,1.73-0.652,3.007-1.133
					c2.656-0.977,6.436-2.366,11.093-4.077c4.7-1.708,10.281-3.735,16.476-5.984c3.103-1.122,6.36-2.298,9.736-3.518
					c1.688-0.609,3.406-1.229,5.149-1.858c1.725-0.639,3.476-1.348,4.926-2.51c0.719-0.58,1.325-1.28,1.761-2.07
					c0.426-0.796,0.666-1.677,0.751-2.57c0.169-1.797-0.228-3.592-0.724-5.294c-1.077-3.404-2.218-6.688-3.247-9.817
					c-2.075-6.253-3.945-11.889-5.521-16.636c-1.544-4.714-2.799-8.541-3.68-11.23c-0.415-1.301-0.741-2.326-0.975-3.062
					c-0.1-0.329-0.179-0.592-0.241-0.801C377.51,63.341,377.488,63.247,377.497,63.244z"/>
			</g>
		</g>
		<g>
			<g>
				<path style="fill:#263238;" d="M349.342,49.454c-0.026,0.044-0.531-0.269-1.514-0.665c-0.985-0.376-2.476-0.815-4.365-0.875
					c-1.877-0.069-4.161,0.221-6.441,1.217c-2.272,0.984-4.51,2.731-6.112,5.108c-1.634,2.368-2.349,5.108-2.35,7.593
					c-0.021,2.496,0.509,4.719,1.018,6.543c0.527,1.826,1.066,3.275,1.421,4.281c0.359,1.006,0.553,1.565,0.518,1.579
					c-0.032,0.012-0.289-0.521-0.707-1.505c-0.413-0.986-1.006-2.418-1.584-4.249c-0.56-1.829-1.14-4.08-1.146-6.652
					c-0.027-2.558,0.705-5.432,2.398-7.883c1.662-2.464,3.991-4.261,6.354-5.256c2.371-1.005,4.726-1.263,6.649-1.145
					c1.936,0.109,3.449,0.616,4.427,1.057c0.484,0.237,0.854,0.431,1.087,0.594C349.233,49.351,349.352,49.438,349.342,49.454z"/>
			</g>
		</g>
		<g>
			<g>
				<path style="fill:#263238;" d="M349.796,88.584c-0.006-0.013,0.167-0.099,0.507-0.252c0.337-0.157,0.853-0.358,1.543-0.555
					c0.685-0.215,1.563-0.371,2.599-0.432c1.033-0.051,2.25,0.056,3.508,0.523c2.555,0.898,4.91,3.51,6.066,6.971
					c0.556,1.748,0.605,3.778,0.046,5.741c-0.596,1.955-1.69,3.83-3.27,5.406l0.066-0.265c1.328,3.645,2.774,7.612,4.28,11.739
					l0.091,0.251l-0.253,0.085c-0.725,0.243-1.503,0.504-2.286,0.766c-1.685,0.564-3.346,1.12-4.976,1.666l-0.246,0.082
					l-0.081-0.247c-1.37-4.146-2.871-8.055-3.961-11.791l0.216,0.17c-2.047-0.137-3.887-0.996-5.352-2.116
					c-1.471-1.131-2.598-2.535-3.358-4.012c-0.747-1.482-1.123-3.055-1.06-4.504c0.037-1.448,0.371-2.759,0.839-3.864
					c0.933-2.229,2.323-3.631,3.353-4.396C349.116,88.783,349.796,88.584,349.796,88.584c0.024,0.045-0.635,0.296-1.636,1.087
					c-0.981,0.79-2.307,2.194-3.179,4.384c-0.871,2.137-1.249,5.209,0.309,8.076c0.747,1.417,1.848,2.764,3.271,3.843
					c1.417,1.068,3.185,1.873,5.109,1.991l0.169,0.01l0.047,0.16c1.103,3.71,2.612,7.603,3.994,11.766l-0.328-0.164
					c1.629-0.546,3.29-1.104,4.975-1.669c0.783-0.262,1.56-0.523,2.286-0.766l-0.162,0.335c-1.495-4.131-2.933-8.102-4.252-11.749
					l-0.054-0.147l0.119-0.118c1.496-1.479,2.586-3.313,3.16-5.173c0.546-1.877,0.514-3.806-0.004-5.49
					c-1.093-3.359-3.34-5.913-5.777-6.81c-1.203-0.47-2.381-0.598-3.393-0.571c-1.014,0.036-1.881,0.165-2.565,0.353
					C350.513,88.286,349.814,88.628,349.796,88.584z"/>
			</g>
		</g>
	</g>
</g>
<g id="Device">
	<g>
		<g>
			<g>
				<path style="fill:#455A64;" d="M318.891,377.318l-99.881-0.462c-12.013-0.055-21.708-9.836-21.657-21.849l1.059-250.404
					c0.051-12.02,9.838-21.721,21.857-21.665l99.881,0.461c12.013,0.056,21.707,9.837,21.656,21.849l-1.059,250.404
					C340.698,367.672,330.911,377.374,318.891,377.318z"/>
			</g>
			<g>
				<path style="fill:#FFFFFF;" d="M320.008,92.041l-19.365-0.089c-2.597-0.012-4.712,2.18-4.723,4.894l-0.016,3.513
					c-0.011,2.715-2.126,4.906-4.723,4.894l-37.747-0.174c-2.597-0.012-4.693-2.223-4.682-4.938l0.015-3.513
					c0.011-2.715-2.085-4.926-4.682-4.938l-6.811-0.032l-16.949-0.078c-8.417-0.039-15.272,6.755-15.308,15.173l-1.033,244.412
					c-0.036,8.414,6.754,15.264,15.167,15.303l99.682,0.46c8.417,0.039,15.271-6.755,15.308-15.173l1.033-244.413
					C335.21,98.93,328.421,92.081,320.008,92.041z"/>
			</g>
			<g>
				<g>
					<g>
						<g>
							<path style="fill:#E8505B;" d="M306.593,334.325l-74.124-0.342c-0.767-0.004-1.386-0.839-1.381-1.866l0.082-19.392
								c0.004-1.027,0.63-1.856,1.397-1.853l74.124,0.343c0.768,0.004,1.387,0.839,1.382,1.866l-0.082,19.391
								C307.987,333.499,307.361,334.329,306.593,334.325z"/>
						</g>
						<g>
							
								<text transform="matrix(0.9566 0.0044 -0.0042 1 252.5873 324.946)" style="fill:#E8E8E3; font-family:'Montserrat-Regular'; font-size:8.299px;">SING UP</text>
						</g>
					</g>
				</g>
			</g>
		</g>
		<g>
			<g>
				
					<rect x="221.508" y="163.811" transform="matrix(1 0.0046 -0.0046 1 0.7695 -1.08)" style="fill:#E8505B;" width="25.717" height="4.719"/>
				
					<rect x="221.508" y="163.811" transform="matrix(1 0.0046 -0.0046 1 0.7695 -1.08)" style="opacity:0.1;" width="25.717" height="4.719"/>
			</g>
			<g>
				<g>
					<path style="fill:#E0E0E0;" d="M322.655,192.826c-0.004-0.02,0.215,0.012,0.587-0.138c0.351-0.136,0.905-0.563,0.969-1.346
						c-0.003-1.595-0.008-3.913-0.014-6.889c0-1.499-0.001-3.162-0.002-4.982c0.001-0.456,0.001-0.92,0.001-1.395
						c0.013-0.486,0.012-0.937-0.28-1.31c-0.263-0.371-0.713-0.608-1.183-0.61c-0.513-0.001-1.035-0.002-1.566-0.003
						c-4.255-0.008-9.096-0.018-14.444-0.028c-21.423-0.08-50.987-0.189-83.641-0.31c-0.431-0.003-0.852,0.208-1.102,0.557
						c-0.278,0.354-0.266,0.771-0.26,1.307c-0.004,1.015-0.009,2.026-0.013,3.035c-0.009,2.017-0.018,4.02-0.026,6.008
						c-0.004,0.995-0.009,1.985-0.014,2.972c0.016,0.473-0.046,1.039,0.042,1.406c0.099,0.401,0.403,0.741,0.781,0.901
						c0.197,0.08,0.381,0.108,0.619,0.106l0.732,0.004l1.459,0.007c0.971,0.005,1.938,0.01,2.901,0.015
						c7.701,0.041,15.13,0.081,22.208,0.118c14.149,0.086,26.893,0.164,37.602,0.229c10.689,0.084,19.346,0.153,25.35,0.2
						c2.978,0.035,5.297,0.062,6.892,0.081c0.774,0.015,1.369,0.026,1.792,0.034C322.448,192.807,322.655,192.826,322.655,192.826
						s-0.207,0.017-0.611,0.023c-0.423,0.004-1.018,0.01-1.792,0.018c-1.596,0.004-3.915,0.01-6.893,0.017
						c-6.005-0.008-14.661-0.02-25.351-0.034c-10.709-0.034-23.453-0.074-37.603-0.118c-7.077-0.028-14.506-0.057-22.207-0.087
						c-0.963-0.004-1.93-0.008-2.901-0.012l-1.46-0.006l-0.732-0.003c-0.25,0.005-0.56-0.034-0.816-0.146
						c-0.523-0.22-0.94-0.688-1.08-1.245c-0.079-0.283-0.061-0.569-0.062-0.8l0.003-0.739c0.004-0.987,0.008-1.978,0.012-2.972
						c0.008-1.989,0.016-3.992,0.024-6.008c0.004-1.008,0.008-2.02,0.012-3.035c0.008-0.26-0.015-0.488,0.026-0.799
						c0.044-0.292,0.157-0.575,0.334-0.813c0.343-0.483,0.933-0.778,1.525-0.771c32.653,0.18,62.217,0.344,83.639,0.462
						c5.35,0.039,10.19,0.074,14.445,0.105c0.531,0.004,1.054,0.008,1.566,0.013c0.56,0.005,1.093,0.293,1.399,0.733
						c0.343,0.431,0.34,1.021,0.32,1.469c-0.004,0.475-0.007,0.94-0.011,1.395c-0.017,1.82-0.031,3.483-0.044,4.981
						c-0.037,2.98-0.065,5.301-0.085,6.897c-0.087,0.834-0.686,1.262-1.055,1.387C322.87,192.876,322.655,192.826,322.655,192.826z"
						/>
				</g>
			</g>
			<g>
				
					<rect x="228.41" y="182.011" transform="matrix(1 0.0046 -0.0046 1 0.8536 -1.1617)" style="fill:#E8505B;" width="47.043" height="4.411"/>
				
					<rect x="228.41" y="182.011" transform="matrix(1 0.0046 -0.0046 1 0.8536 -1.1617)" style="opacity:0.2;fill:#FFFFFF;" width="47.043" height="4.411"/>
			</g>
			<g>
				
					<rect x="221.326" y="206.874" transform="matrix(1 0.0046 -0.0046 1 0.9683 -1.0787)" style="fill:#E8505B;" width="25.717" height="4.719"/>
				
					<rect x="221.326" y="206.874" transform="matrix(1 0.0046 -0.0046 1 0.9683 -1.0787)" style="opacity:0.1;" width="25.717" height="4.719"/>
			</g>
			<g>
				<g>
					<path style="fill:#E0E0E0;" d="M321.995,235.887c-0.002-0.018,0.21,0.001,0.593-0.112c0.363-0.119,0.948-0.419,1.267-1.133
						c0.171-0.352,0.188-0.779,0.173-1.268c-0.002-0.486-0.004-1.016-0.006-1.589c-0.002-1.151-0.005-2.476-0.008-3.964
						c0-1.493-0.001-3.151-0.001-4.964c0-0.454,0-0.917,0-1.39c0.022-0.478-0.036-0.921-0.292-1.32
						c-0.24-0.392-0.631-0.703-1.087-0.842c-0.447-0.142-0.982-0.065-1.511-0.086c-4.24-0.008-9.064-0.018-14.396-0.028
						c-21.348-0.079-50.81-0.189-83.35-0.309c-0.904-0.022-1.739,0.715-1.826,1.609c-0.03,0.951-0.016,2.002-0.026,2.994
						c-0.009,2.009-0.018,4.006-0.026,5.987c-0.004,0.991-0.009,1.979-0.013,2.962c0.017,0.491-0.053,1.004,0.063,1.396
						c0.113,0.414,0.377,0.783,0.73,1.025c0.367,0.247,0.764,0.338,1.244,0.32l1.455,0.007c0.968,0.005,1.931,0.01,2.891,0.015
						c7.675,0.04,15.078,0.08,22.13,0.117c14.101,0.086,26.8,0.164,37.472,0.229c10.652,0.084,19.278,0.152,25.262,0.199
						c2.968,0.035,5.278,0.062,6.868,0.081c0.771,0.015,1.364,0.026,1.786,0.034C321.789,235.868,321.995,235.887,321.995,235.887
						s-0.206,0.017-0.609,0.023c-0.421,0.004-1.015,0.01-1.786,0.018c-1.589,0.004-3.9,0.01-6.868,0.018
						c-5.983-0.008-14.61-0.02-25.263-0.034c-10.672-0.033-23.371-0.073-37.472-0.117c-7.053-0.028-14.456-0.057-22.13-0.087
						c-0.96-0.004-1.923-0.008-2.891-0.012l-1.455-0.006c-0.489,0.026-1.09-0.092-1.532-0.408c-0.453-0.31-0.791-0.783-0.937-1.315
						c-0.149-0.56-0.06-1.047-0.082-1.535c0.004-0.983,0.007-1.971,0.011-2.962c0.008-1.982,0.017-3.978,0.024-5.988
						c0.012-1.018-0.008-1.984,0.029-3.053c0.111-1.151,1.185-2.098,2.345-2.069c32.54,0.18,62.001,0.343,83.349,0.461
						c5.331,0.039,10.154,0.074,14.395,0.106c0.523,0.028,1.052-0.057,1.593,0.109c0.523,0.163,0.964,0.521,1.234,0.969
						c0.287,0.439,0.349,1,0.32,1.462c-0.004,0.473-0.007,0.936-0.011,1.391c-0.016,1.813-0.031,3.471-0.044,4.964
						c-0.016,1.489-0.029,2.813-0.041,3.964c-0.007,0.573-0.013,1.103-0.018,1.588c0.009,0.477-0.02,0.95-0.207,1.311
						c-0.352,0.743-0.97,1.035-1.348,1.141C322.205,235.925,321.995,235.887,321.995,235.887z"/>
				</g>
			</g>
			<g>
				
					<rect x="221.137" y="251.787" transform="matrix(1 0.0046 -0.0046 1 1.1706 -1.0728)" style="fill:#E8505B;" width="25.717" height="4.719"/>
				
					<rect x="221.137" y="251.787" transform="matrix(1 0.0046 -0.0046 1 1.1706 -1.0728)" style="opacity:0.1;" width="25.717" height="4.719"/>
			</g>
			<g>
				<g>
					<path style="fill:#E0E0E0;" d="M321.804,280.8c-0.001-0.018,0.211,0.001,0.593-0.111c0.364-0.119,0.948-0.42,1.267-1.134
						c0.171-0.352,0.188-0.779,0.173-1.268c-0.002-0.486-0.004-1.016-0.006-1.589c-0.002-1.151-0.004-2.476-0.007-3.964
						c-0.001-1.493-0.001-3.151-0.002-4.965c0-0.453,0.001-0.917,0.001-1.391c0.021-0.478-0.036-0.92-0.292-1.319
						c-0.241-0.392-0.631-0.703-1.087-0.843c-0.447-0.141-0.982-0.064-1.512-0.086c-4.239-0.009-9.064-0.018-14.395-0.028
						c-21.349-0.079-50.81-0.188-83.35-0.309c-0.905-0.022-1.739,0.715-1.826,1.609c-0.03,0.951-0.016,2.002-0.025,2.994
						c-0.009,2.009-0.018,4.006-0.026,5.987c-0.004,0.991-0.009,1.977-0.013,2.962c0.017,0.49-0.054,1.003,0.062,1.396
						c0.113,0.414,0.377,0.783,0.73,1.025c0.367,0.247,0.764,0.339,1.244,0.32l1.455,0.007c0.968,0.005,1.931,0.01,2.891,0.015
						c7.674,0.041,15.077,0.08,22.13,0.117c14.101,0.087,26.8,0.164,37.472,0.229c10.652,0.084,19.278,0.152,25.262,0.199
						c2.968,0.035,5.279,0.063,6.868,0.081c0.771,0.015,1.365,0.025,1.786,0.034C321.598,280.782,321.804,280.8,321.804,280.8
						s-0.206,0.017-0.608,0.023c-0.422,0.004-1.015,0.01-1.786,0.018c-1.59,0.004-3.901,0.01-6.869,0.018
						c-5.983-0.009-14.609-0.02-25.263-0.034c-10.672-0.033-23.371-0.073-37.472-0.117c-7.053-0.028-14.456-0.057-22.13-0.087
						c-0.96-0.004-1.923-0.009-2.891-0.013l-1.455-0.006c-0.489,0.026-1.09-0.093-1.532-0.408c-0.453-0.311-0.791-0.783-0.937-1.315
						c-0.148-0.56-0.06-1.048-0.082-1.535c0.004-0.983,0.008-1.971,0.012-2.961c0.008-1.982,0.016-3.979,0.024-5.988
						c0.012-1.017-0.008-1.983,0.029-3.053c0.111-1.151,1.185-2.098,2.345-2.068c32.54,0.18,62,0.343,83.349,0.461
						c5.33,0.039,10.154,0.074,14.395,0.105c0.523,0.027,1.052-0.057,1.593,0.109c0.522,0.163,0.963,0.521,1.234,0.97
						c0.287,0.439,0.349,1,0.32,1.462c-0.004,0.473-0.008,0.936-0.012,1.39c-0.016,1.814-0.03,3.472-0.043,4.964
						c-0.016,1.489-0.029,2.814-0.041,3.965c-0.007,0.572-0.014,1.103-0.02,1.588c0.009,0.478-0.02,0.95-0.207,1.311
						c-0.352,0.742-0.97,1.035-1.347,1.141C322.015,280.837,321.804,280.8,321.804,280.8z"/>
				</g>
			</g>
			<g>
				
					<rect x="228.228" y="225.074" transform="matrix(1 0.0046 -0.0046 1 1.0525 -1.1604)" style="fill:#E8505B;" width="47.044" height="4.411"/>
				
					<rect x="228.228" y="225.074" transform="matrix(1 0.0046 -0.0046 1 1.0525 -1.1604)" style="opacity:0.2;fill:#FFFFFF;" width="47.044" height="4.411"/>
			</g>
			<g>
				<g>
					<g>
						<path style="fill:#E8505B;" d="M232.511,272.637c-0.005,1.211-0.93,2.189-2.066,2.184c-1.136-0.006-2.052-0.992-2.047-2.203
							c0.005-1.211,0.93-2.19,2.066-2.184C231.6,270.439,232.516,271.425,232.511,272.637z"/>
					</g>
					<g>
						<path style="fill:#E8505B;" d="M238.884,272.667c-0.005,1.211-0.93,2.189-2.066,2.184c-1.136-0.005-2.052-0.991-2.047-2.203
							c0.005-1.211,0.93-2.189,2.066-2.184C237.973,270.468,238.889,271.455,238.884,272.667z"/>
					</g>
					<g>
						<path style="fill:#E8505B;" d="M245.257,272.696c-0.005,1.211-0.93,2.19-2.066,2.184c-1.136-0.005-2.052-0.991-2.047-2.203
							c0.005-1.211,0.93-2.189,2.066-2.184C244.345,270.498,245.262,271.484,245.257,272.696z"/>
					</g>
					<g>
						<path style="fill:#E8505B;" d="M251.629,272.725c-0.005,1.211-0.93,2.19-2.065,2.184c-1.136-0.005-2.053-0.991-2.047-2.203
							c0.005-1.211,0.93-2.189,2.066-2.184C250.718,270.528,251.635,271.514,251.629,272.725z"/>
					</g>
					<g>
						<path style="fill:#E8505B;" d="M258.003,272.754c-0.005,1.212-0.93,2.19-2.066,2.184c-1.136-0.005-2.053-0.991-2.048-2.202
							c0.006-1.212,0.931-2.19,2.066-2.185C257.091,270.557,258.007,271.543,258.003,272.754z"/>
					</g>
					<g>
						<path style="fill:#E8505B;" d="M264.375,272.784c-0.005,1.212-0.93,2.19-2.066,2.184c-1.136-0.005-2.052-0.991-2.047-2.202
							c0.005-1.212,0.93-2.189,2.065-2.185C263.464,270.586,264.38,271.573,264.375,272.784z"/>
					</g>
					<g>
						<path style="fill:#E8505B;" d="M270.749,272.813c-0.006,1.212-0.931,2.19-2.066,2.185c-1.136-0.006-2.052-0.992-2.047-2.203
							c0.005-1.212,0.93-2.189,2.065-2.184C269.836,270.616,270.753,271.602,270.749,272.813z"/>
					</g>
					<g>
						<path style="fill:#E8505B;" d="M277.121,272.842c-0.005,1.212-0.93,2.19-2.065,2.185c-1.136-0.006-2.053-0.991-2.047-2.203
							c0.005-1.211,0.93-2.189,2.065-2.184C276.21,270.645,277.126,271.631,277.121,272.842z"/>
					</g>
					<g>
						<path style="fill:#E8505B;" d="M283.494,272.873c-0.005,1.211-0.93,2.189-2.065,2.184c-1.136-0.005-2.053-0.991-2.048-2.203
							c0.006-1.211,0.931-2.188,2.066-2.184C282.583,270.674,283.499,271.661,283.494,272.873z"/>
					</g>
				</g>
				<g style="opacity:0.2;">
					<g>
						<path style="fill:#FFFFFF;" d="M232.511,272.637c-0.005,1.211-0.93,2.189-2.066,2.184c-1.136-0.006-2.052-0.992-2.047-2.203
							c0.005-1.211,0.93-2.19,2.066-2.184C231.6,270.439,232.516,271.425,232.511,272.637z"/>
					</g>
					<g>
						<path style="fill:#FFFFFF;" d="M238.884,272.667c-0.005,1.211-0.93,2.189-2.066,2.184c-1.136-0.005-2.052-0.991-2.047-2.203
							c0.005-1.211,0.93-2.189,2.066-2.184C237.973,270.468,238.889,271.455,238.884,272.667z"/>
					</g>
					<g>
						<path style="fill:#FFFFFF;" d="M245.257,272.696c-0.005,1.211-0.93,2.19-2.066,2.184c-1.136-0.005-2.052-0.991-2.047-2.203
							c0.005-1.211,0.93-2.189,2.066-2.184C244.345,270.498,245.262,271.484,245.257,272.696z"/>
					</g>
					<g>
						<path style="fill:#FFFFFF;" d="M251.629,272.725c-0.005,1.211-0.93,2.19-2.065,2.184c-1.136-0.005-2.053-0.991-2.047-2.203
							c0.005-1.211,0.93-2.189,2.066-2.184C250.718,270.528,251.635,271.514,251.629,272.725z"/>
					</g>
					<g>
						<path style="fill:#FFFFFF;" d="M258.003,272.754c-0.005,1.212-0.93,2.19-2.066,2.184c-1.136-0.005-2.053-0.991-2.048-2.202
							c0.006-1.212,0.931-2.19,2.066-2.185C257.091,270.557,258.007,271.543,258.003,272.754z"/>
					</g>
					<g>
						<path style="fill:#FFFFFF;" d="M264.375,272.784c-0.005,1.212-0.93,2.19-2.066,2.184c-1.136-0.005-2.052-0.991-2.047-2.202
							c0.005-1.212,0.93-2.189,2.065-2.185C263.464,270.586,264.38,271.573,264.375,272.784z"/>
					</g>
					<g>
						<path style="fill:#FFFFFF;" d="M270.749,272.813c-0.006,1.212-0.931,2.19-2.066,2.185c-1.136-0.006-2.052-0.992-2.047-2.203
							c0.005-1.212,0.93-2.189,2.065-2.184C269.836,270.616,270.753,271.602,270.749,272.813z"/>
					</g>
					<g>
						<path style="fill:#FFFFFF;" d="M277.121,272.842c-0.005,1.212-0.93,2.19-2.065,2.185c-1.136-0.006-2.053-0.991-2.047-2.203
							c0.005-1.211,0.93-2.189,2.065-2.184C276.21,270.645,277.126,271.631,277.121,272.842z"/>
					</g>
					<g>
						<path style="fill:#FFFFFF;" d="M283.494,272.873c-0.005,1.211-0.93,2.189-2.065,2.184c-1.136-0.005-2.053-0.991-2.048-2.203
							c0.006-1.211,0.931-2.188,2.066-2.184C282.583,270.674,283.499,271.661,283.494,272.873z"/>
					</g>
				</g>
			</g>
			<g>
				<g>
					<path style="fill:#E8505B;" d="M274.443,128.506c1.346-0.565,2.303-1.952,2.311-3.587c0.009-2.142-1.612-3.886-3.621-3.896
						c-2.008-0.009-3.644,1.72-3.652,3.862c-0.007,1.65,0.957,3.055,2.317,3.621c-5.597,0.843-5.343,6.926-5.343,6.926l13.234,0.061
						C279.689,135.493,279.991,129.344,274.443,128.506z"/>
					<path style="opacity:0.1;" d="M274.443,128.506c1.346-0.565,2.303-1.952,2.311-3.587c0.009-2.142-1.612-3.886-3.621-3.896
						c-2.008-0.009-3.644,1.72-3.652,3.862c-0.007,1.65,0.957,3.055,2.317,3.621c-5.597,0.843-5.343,6.926-5.343,6.926l13.234,0.061
						C279.689,135.493,279.991,129.344,274.443,128.506z"/>
				</g>
				<g>
					
						<rect x="248.744" y="139.366" transform="matrix(1 0.0046 -0.0046 1 0.6591 -1.2554)" style="fill:#E8505B;" width="47.193" height="5.643"/>
					
						<rect x="248.744" y="139.366" transform="matrix(1 0.0046 -0.0046 1 0.6591 -1.2554)" style="opacity:0.2;fill:#FFFFFF;" width="47.193" height="5.643"/>
				</g>
			</g>
		</g>
	</g>
</g>
<g id="Speech_Bubble">
	<g>
		<g>
			<g>
				<path style="fill:#E8505B;" d="M122.465,168.677c0,0.01-0.158,0.027-0.464,0.052c-0.331,0.024-0.782,0.057-1.361,0.099
					c-0.601,0.01-1.332,0.141-2.194,0.293c-0.429,0.087-0.903,0.122-1.387,0.265c-0.486,0.135-1.003,0.278-1.55,0.43
					c-2.158,0.681-4.757,1.763-7.374,3.658c-2.61,1.88-5.221,4.569-7.256,8.077c-1.07,1.724-1.846,3.715-2.543,5.808
					c-0.567,2.13-1.069,4.393-1.107,6.778c-0.106,1.189,0.014,2.397,0.064,3.625c0.032,0.614,0.164,1.222,0.243,1.841
					c0.084,0.619,0.175,1.241,0.351,1.852c0.506,2.486,1.519,4.923,2.8,7.258c2.561,4.688,6.865,8.727,12.18,11.068
					c2.659,1.173,5.599,1.806,8.589,1.929c2.993,0.19,6.059-0.291,8.965-1.29l0.879-0.323l0.116-0.042l0.105,0.053
					c4.303,2.185,8.523,4.327,12.612,6.403l-0.375,0.32c-1.347-4.18-2.652-8.232-3.905-12.121l-0.048-0.15l0.111-0.111
					c3.179-3.183,5.394-7.05,6.622-11.009c1.231-3.971,1.441-8.015,0.961-11.721c-0.48-3.714-1.694-7.091-3.313-9.933
					c-1.618-2.85-3.63-5.165-5.695-6.973c-2.089-1.795-4.255-3.011-6.196-3.942c-1.988-0.832-3.76-1.365-5.233-1.649
					c-0.736-0.126-1.391-0.237-1.962-0.334c-0.566-0.04-1.048-0.073-1.447-0.101c-0.372-0.029-0.665-0.051-0.887-0.068
					C122.567,168.698,122.465,168.685,122.465,168.677c0-0.007,0.102-0.009,0.302-0.006c0.222,0.006,0.516,0.015,0.89,0.025
					c0.401,0.016,0.887,0.036,1.457,0.059c0.576,0.086,1.237,0.184,1.98,0.295c1.488,0.26,3.283,0.771,5.302,1.589
					c1.97,0.917,4.174,2.127,6.304,3.927c2.106,1.812,4.161,4.145,5.82,7.026c1.659,2.873,2.911,6.296,3.415,10.067
					c0.504,3.762,0.306,7.874-0.934,11.919c-1.237,4.033-3.483,7.98-6.719,11.232l0.063-0.261c1.258,3.886,2.57,7.937,3.923,12.115
					l0.198,0.611l-0.573-0.29c-4.091-2.074-8.311-4.213-12.616-6.396l0.221,0.011l-0.898,0.33c-2.971,1.022-6.107,1.511-9.166,1.317
					c-3.055-0.127-6.061-0.778-8.776-1.98c-5.429-2.397-9.808-6.529-12.405-11.311c-1.3-2.382-2.321-4.867-2.83-7.398
					c-0.176-0.622-0.266-1.255-0.35-1.885c-0.078-0.629-0.209-1.249-0.24-1.873c-0.047-1.248-0.164-2.477-0.051-3.684
					c0.049-2.423,0.568-4.721,1.156-6.88c0.718-2.122,1.518-4.137,2.613-5.88c2.085-3.545,4.751-6.25,7.41-8.129
					c2.665-1.894,5.304-2.958,7.49-3.614c0.553-0.144,1.077-0.281,1.569-0.409c0.489-0.136,0.968-0.164,1.401-0.242
					c0.871-0.137,1.607-0.251,2.212-0.243c0.582-0.02,1.036-0.034,1.369-0.046C122.308,168.667,122.465,168.668,122.465,168.677z"/>
			</g>
		</g>
		<g>
			<g>
				<path style="fill:#E8505B;" d="M128.168,192.026h-1.848l-4.033-5.621v-3.689c0,0-2.856-0.176-2.521,4.655
					c0.336,4.831-0.027,3.601-0.027,3.601s-6.065,0.023-6.569,0.55c-0.367,0.383-0.532,6.408-0.596,9.675
					c-0.032,1.645,0.977,3.175,2.507,3.564c0.217,0.056,0.437,0.088,0.653,0.088c1.513,0,9.242-1.23,9.242-1.23h3.192V192.026z"/>
			</g>
			<g>
				<polygon style="fill:#E8505B;" points="133.458,191.013 132.322,203.653 129.157,203.653 129.157,191.268 				"/>
			</g>
		</g>
	</g>
</g>
<g id="Character">
	<g>
		<g>
			<g>
				<g>
					<path style="fill:#E8505B;" d="M171.15,448.341v-8.556l-15.331-0.103l-0.127,12.925l0.95,0.071
						c4.229,0.273,21.521,0.671,24.354-0.206C184.157,451.495,171.15,448.341,171.15,448.341z"/>
				</g>
				<g>
					<g>
						<path style="fill:#263238;" d="M181.359,451.67c0,0.145-5.735,0.261-12.807,0.261c-7.075,0-12.808-0.116-12.808-0.261
							c0-0.144,5.733-0.26,12.808-0.26C175.624,451.411,181.359,451.527,181.359,451.67z"/>
					</g>
				</g>
				<g>
					<g>
						<path style="fill:#263238;" d="M171.419,450.087c-0.126-0.066-0.018-0.518,0.311-0.964c0.328-0.447,0.729-0.685,0.829-0.584
							c0.103,0.103-0.107,0.479-0.41,0.893C171.846,449.843,171.548,450.156,171.419,450.087z"/>
					</g>
				</g>
				<g>
					<g>
						<path style="fill:#263238;" d="M172.397,450.651c-0.133-0.05-0.064-0.557,0.237-1.09c0.3-0.535,0.699-0.855,0.81-0.768
							c0.115,0.09-0.078,0.526-0.357,1.023C172.808,450.312,172.534,450.704,172.397,450.651z"/>
					</g>
				</g>
				<g>
					<g>
						<path style="fill:#263238;" d="M160.363,451.632c-0.06,0.042-0.288-0.183-0.62-0.559c-0.334-0.373-0.771-0.901-1.345-1.347
							c-0.569-0.444-1.196-0.667-1.659-0.725c-0.466-0.063-0.772,0.01-0.798-0.065c-0.027-0.056,0.258-0.27,0.811-0.303
							c0.544-0.037,1.313,0.17,1.964,0.68c0.647,0.505,1.061,1.107,1.324,1.543C160.302,451.296,160.42,451.592,160.363,451.632z"/>
					</g>
				</g>
				<g>
					<g>
						<path style="fill:#263238;" d="M171.466,448.479c0.075,0.121-0.188,0.418-0.626,0.578c-0.437,0.162-0.831,0.105-0.851-0.035
							c-0.023-0.144,0.288-0.311,0.671-0.453C171.044,448.428,171.39,448.355,171.466,448.479z"/>
					</g>
				</g>
				<g>
					<g>
						<path style="fill:#263238;" d="M171.226,447.652c0.014,0.144-0.395,0.267-0.912,0.273c-0.518,0.007-0.93-0.104-0.919-0.248
							c0.01-0.144,0.418-0.266,0.912-0.273C170.8,447.398,171.212,447.509,171.226,447.652z"/>
					</g>
				</g>
			</g>
			<g>
				<g>
					<path style="fill:#E8505B;" d="M208.901,448.341l0.001-8.556l-15.331-0.103l-0.127,12.794l0.95,0.07
						c4.229,0.273,21.521,0.803,24.355-0.074C221.909,451.495,208.901,448.341,208.901,448.341z"/>
				</g>
				<g>
					<g>
						<path style="fill:#263238;" d="M219.111,451.69c0,0.143-5.734,0.261-12.807,0.261c-7.075,0-12.808-0.117-12.808-0.261
							c0-0.144,5.733-0.261,12.808-0.261C213.376,451.429,219.111,451.546,219.111,451.69z"/>
					</g>
				</g>
				<g>
					<g>
						<path style="fill:#263238;" d="M209.171,450.087c-0.126-0.066-0.018-0.518,0.312-0.964c0.328-0.447,0.729-0.685,0.829-0.584
							c0.103,0.103-0.107,0.479-0.41,0.893C209.598,449.843,209.299,450.156,209.171,450.087z"/>
					</g>
				</g>
				<g>
					<g>
						<path style="fill:#263238;" d="M210.149,450.651c-0.133-0.05-0.064-0.557,0.237-1.09c0.3-0.535,0.699-0.855,0.81-0.768
							c0.115,0.09-0.078,0.526-0.356,1.023C210.56,450.312,210.285,450.704,210.149,450.651z"/>
					</g>
				</g>
				<g>
					<g>
						<path style="fill:#263238;" d="M198.114,451.632c-0.06,0.042-0.288-0.183-0.62-0.559c-0.333-0.373-0.771-0.901-1.345-1.347
							c-0.569-0.444-1.195-0.667-1.659-0.725c-0.466-0.063-0.772,0.01-0.798-0.065c-0.027-0.056,0.258-0.27,0.81-0.303
							c0.544-0.037,1.314,0.17,1.964,0.68c0.648,0.505,1.06,1.107,1.324,1.543C198.054,451.296,198.172,451.592,198.114,451.632z"/>
					</g>
				</g>
				<g>
					<g>
						<path style="fill:#263238;" d="M209.218,448.479c0.075,0.121-0.188,0.418-0.625,0.578c-0.438,0.162-0.831,0.105-0.852-0.035
							c-0.023-0.144,0.288-0.311,0.671-0.453C208.796,448.428,209.142,448.355,209.218,448.479z"/>
					</g>
				</g>
				<g>
					<g>
						<path style="fill:#263238;" d="M208.977,447.652c0.014,0.144-0.395,0.267-0.912,0.273c-0.518,0.007-0.929-0.104-0.919-0.248
							c0.01-0.144,0.419-0.266,0.913-0.273C208.552,447.398,208.963,447.509,208.977,447.652z"/>
					</g>
				</g>
			</g>
			<g>
				<path style="fill:#FFBE9D;" d="M265.378,194.445c-0.4-0.412-1.384-0.218-1.384-0.218s0.172-1.169-0.01-1.734
					c-0.181-0.565-1.441-0.456-1.441-0.456s-0.078-0.544,0.032-1.422c0.028-0.22-0.094-0.382-0.293-0.503
					c-0.597-0.361-1.884-0.344-1.884-0.344c-0.772-0.552,2.352-4.92,3.51-6.318c1.145-1.381,0.952-2.488-0.081-2.486
					c-0.704,0.001-4.351,4.2-5.464,5.61c-1.112,1.409-4.096,5.33-4.197,2.201c-0.102-3.129-1.359-5.496-2.145-5.899
					c-0.786-0.403-1.634,0.543-1.199,1.412c0.352,0.702,0.574,2.055,0.7,3.078c0.104,0.844,0.069,1.7-0.115,2.529
					c-0.522,2.344-1.083,3.866-1.346,4.517l-0.077-0.043c0,0-21.827,20.929-23.4,22.423c-1.416,1.344-29.778-1.59-35.46-2.193
					c-1.553-0.174-3.853-0.486-5.846-0.398c-2.465,0.108-2.903,0.458-5.37,0.491c-7.554,0.101-13.849,0.836-18.534,1.629
					c-5.664,0.958-10.308,4.99-12.061,10.461c-5.735,17.897-18.709,60.268-21.021,84.072c-1.821,3.424-3.856,7.423-4.683,9.673
					c-1.607,4.375-1.217,4.524-0.675,4.625c1.454,0.269,3.118-7.588,3.739-5.692c0.622,1.897-3.152,9.373-1.621,9.592
					c1.996,0.285,3.587-7.972,3.773-8.661c0.181-0.669,1.188-0.443,0.987,0.17c-0.29,0.881-3.104,10.211-1.146,10.51
					c1.085,0.166,1.202-1.811,1.202-1.811s1.99-8.923,2.909-8.751c0.934,0.175-0.058,5.453-0.519,7.209
					c-0.455,1.735,0.186,2.657,1.122,2.221c0.638-0.298,2.175-5.644,2.589-7.391c0.415-1.747,1.466-6.56,2.878-3.766
					c1.412,2.794,3.549,4.41,4.432,4.445c0.882,0.034,1.252-1.181,0.491-1.786c-0.615-0.488-1.387-1.621-1.933-2.496
					c-0.45-0.721-0.78-1.512-0.962-2.342c-0.703-3.2-0.697-5.061-0.697-5.061l-0.163-1.028c2.239-11.093,8.694-43.638,17.966-64.43
					l3.818,7.857l1.657,5.816l-10.175,25.139l43.413-0.572l-6.472-24.939l7.863-26.005l-0.001,0c8.51,0.19,30.367,0.507,34.04-1.135
					c4.579-2.046,28.278-31.92,28.278-31.92h-0.001c1.601-1.275,3.229-2.646,4.43-3.843
					C264.833,196.48,266.246,195.337,265.378,194.445z"/>
			</g>
			<g>
				<g>
					<path style="fill:#E8505B;" d="M151.392,266.387c1.257-4.299,7.729-25.557,7.729-25.557s3.176,17.331,2.341,19.418
						c-0.962,2.405-2.73,5.157-2.73,5.157c-7.34,11.179-6.377,16.766-6.377,16.766l44.34-1.352
						c0.108-6.201-3.563-20.618-4.33-22.915c-0.768-2.297,1.778-9.836,1.778-9.836s5.011-5.089,4.817-7.708
						c-0.391-5.276-0.874-6.98-0.874-6.98l26.98,0.993l-0.848-18.307l-38.783-3.881c-1.342,3.819-13.555,1.948-13.555,1.948
						c-13.185,0.433-13.983,2.858-19.482,7.115c-5.498,4.257-14.553,40.819-14.553,40.819L151.392,266.387z"/>
				</g>
				<g>
					<g>
						<path style="fill:#263238;" d="M177.615,262.063c-0.001,0.069-0.893,0.128-2.337,0.118c-1.443-0.009-3.438-0.099-5.63-0.318
							c-2.193-0.222-4.165-0.531-5.582-0.81c-1.416-0.278-2.279-0.513-2.266-0.581c0.014-0.073,0.899,0.034,2.325,0.218
							c1.426,0.185,3.394,0.435,5.575,0.654c2.18,0.219,4.158,0.366,5.592,0.469C176.727,261.917,177.616,261.988,177.615,262.063z"
							/>
					</g>
				</g>
				<g>
					<g>
						<path style="fill:#263238;" d="M180.65,258.292c0.019,0.064-0.896,0.411-2.421,0.825c-1.524,0.413-3.665,0.87-6.061,1.156
							c-2.397,0.283-4.586,0.342-6.165,0.296c-1.58-0.045-2.55-0.17-2.546-0.235c0.003-0.077,0.977-0.084,2.545-0.133
							c1.568-0.049,3.73-0.164,6.104-0.445c2.372-0.283,4.502-0.678,6.038-0.997C179.68,258.439,180.629,258.217,180.65,258.292z"/>
					</g>
				</g>
				<g>
					<g>
						<path style="fill:#263238;" d="M195.565,241.471c0.069,0.015-0.045,0.879-0.303,2.262c-0.258,1.383-0.663,3.283-1.174,5.367
							c-0.512,2.085-1.031,3.958-1.442,5.303c-0.411,1.346-0.709,2.165-0.778,2.146c-0.07-0.02,0.103-0.873,0.422-2.241
							c0.378-1.561,0.813-3.353,1.292-5.331c0.49-1.975,0.934-3.764,1.321-5.323C195.252,242.292,195.494,241.456,195.565,241.471z"
							/>
					</g>
				</g>
				<g>
					<g>
						<path style="fill:#263238;" d="M151.857,263.84c-0.038,0.139-3.096-0.574-6.83-1.593c-3.735-1.02-6.731-1.957-6.693-2.097
							c0.038-0.139,3.095,0.575,6.83,1.594C148.898,262.763,151.895,263.702,151.857,263.84z"/>
					</g>
				</g>
				<g>
					<g>
						<path style="fill:#263238;" d="M198.575,233.145c0,0.024-0.411,0.067-1.148-0.006c-0.733-0.075-1.806-0.246-3.049-0.727
							c-1.244-0.466-2.658-1.245-3.979-2.423c-1.321-1.173-2.502-2.787-3.255-4.686c-0.765-1.898-1.016-3.876-0.896-5.637
							c0.116-1.758,0.582-3.347,1.369-4.46c0.779-1.128,1.812-1.674,2.531-1.863c0.364-0.097,0.658-0.12,0.854-0.115
							c0.197,0.005,0.298,0.027,0.298,0.043c0.002,0.049-0.415,0.026-1.091,0.265c-0.664,0.238-1.598,0.799-2.286,1.876
							c-1.361,2.14-1.741,6.047-0.294,9.699c0.725,1.826,1.84,3.376,3.094,4.524c1.253,1.153,2.601,1.94,3.793,2.436
							C196.918,233.067,198.593,233.034,198.575,233.145z"/>
					</g>
				</g>
				<g>
					<g>
						<path style="fill:#263238;" d="M221.884,234.007c-0.143,0-0.252-4.126-0.242-9.215c0.01-5.091,0.135-9.215,0.278-9.215
							c0.144,0.001,0.252,4.126,0.242,9.216C222.153,229.882,222.028,234.008,221.884,234.007z"/>
					</g>
				</g>
			</g>
			<g>
				<g>
					<path style="fill:#FFBE9D;" d="M185.198,213.3c0.109-2.232,0.343-4.753,0.343-4.753s5.518-0.608,5.853-6.309
						c0.335-5.701,0-18.846,0-18.846l-10.051-5.118l-11.056,8.725l1.675,28.501l10.173,0.647
						C183.739,216.249,185.116,214.971,185.198,213.3z"/>
				</g>
				<g>
					<g>
						<path style="fill:#EB996E;" d="M186.192,197.729c0.016,0.004,0.017,0.107-0.087,0.245c-0.102,0.134-0.325,0.286-0.635,0.28
							c-0.641-0.031-1.257-0.739-1.484-1.603c-0.114-0.439-0.113-0.884-0.027-1.267c0.068-0.377,0.286-0.756,0.6-0.859
							c0.15-0.056,0.306-0.05,0.425,0.01c0.117,0.059,0.189,0.148,0.226,0.23c0.075,0.17,0.017,0.273,0.002,0.265
							c-0.023-0.001-0.017-0.095-0.101-0.202c-0.079-0.109-0.267-0.208-0.475-0.1c-0.212,0.096-0.357,0.367-0.411,0.714
							c-0.063,0.344-0.055,0.739,0.046,1.13c0.2,0.774,0.737,1.408,1.214,1.465c0.236,0.03,0.432-0.061,0.538-0.147
							C186.133,197.8,186.171,197.719,186.192,197.729z"/>
					</g>
				</g>
				<g>
					<path style="fill:#263238;" d="M194.821,180.315c-0.768-2.624-3.558-3.928-6.1-4.648c-3.867-1.096-8.056-1.581-11.834-0.19
						c-3.778,1.391-8.322,3.838-8.321,8.012c-2.23-0.184-3.504,1.77-4.389,4.191c-0.523,1.43-0.867,3.022-0.948,4.599l-0.037-0.012
						c-0.287,5.463-1.809,12.99-5.351,17.031c-1.956,2.231-4.772,3.772-5.912,6.551c-0.991,2.415-0.478,5.269-1.415,7.707
						c-0.827,2.152-2.658,3.68-3.971,5.552c-2.859,4.078-3.054,9.839-0.953,14.39c2.101,4.551,6.264,7.881,10.885,9.407
						c4.621,1.526,9.655,1.358,14.358,0.134c3.472-0.904,6.85-2.4,9.617-4.765c2.767-2.365,4.89-5.652,5.523-9.322
						c0.704-4.085-0.439-8.233-1.28-12.29c-2.66-12.835-1.9-13.502,1.457-25.408c0.076-0.21,0.123-0.429,0.181-0.645
						c0.044-0.158,0.087-0.309,0.132-0.471l-0.007-0.002c0.094-0.466,0.155-0.94,0.157-1.424c-0.972,0.383-2.146,0.128-2.892-0.626
						c-0.745-0.754-1.023-1.97-0.684-2.993c0.39-1.177,1.47-1.963,2.579-2.43s2.302-0.698,3.391-1.215
						c2.309-1.099,3.91-3.379,4.999-5.768C194.771,184.005,195.34,182.087,194.821,180.315z"/>
				</g>
				<g>
					<g>
						<path style="fill:#E8505B;" d="M186.587,197.972c0.035-0.015,0.229,0.357,0.526,0.988c0.297,0.631,0.695,1.522,1.138,2.546
							l0.083,0.194l-0.212,0.018c-0.333,0.029-0.67,0.058-1.018,0.088c-0.698,0.045-1.28,0.129-1.956,0.122
							c-0.107-0.019-0.226-0.117-0.258-0.227c-0.036-0.108-0.026-0.199-0.015-0.278c0.029-0.157,0.064-0.273,0.094-0.406
							l0.177-0.708c0.221-0.864,0.379-1.394,0.421-1.384c0.042,0.01-0.04,0.557-0.206,1.432l-0.139,0.715
							c-0.051,0.242-0.139,0.603-0.009,0.575c0.498-0.021,1.207-0.104,1.865-0.153c0.348-0.028,0.685-0.054,1.018-0.081
							l-0.128,0.212c-0.428-1.029-0.791-1.936-1.039-2.588C186.684,198.386,186.552,197.987,186.587,197.972z"/>
					</g>
				</g>
			</g>
			<g>
				<g>
					<path style="fill:#263238;" d="M152.355,282.171l44.34-1.352l19.285,75.339l-3.552,86.419h-23.469l2.908-84.579l-17.152-52.446
						l2.643,140.376l-23.694,0.35l-2.496-131.948c-0.104-3.667-1.311-11.941-0.862-15.579L152.355,282.171z"/>
				</g>
				<g>
					<g>
						<path style="fill:#455A64;" d="M180.621,306.617c-0.009,0.069-0.841,0.028-2.175-0.129s-3.169-0.439-5.179-0.842
							c-2.01-0.405-3.811-0.855-5.102-1.227s-2.074-0.653-2.056-0.722c0.04-0.145,3.259,0.636,7.261,1.438
							C177.369,305.944,180.64,306.468,180.621,306.617z"/>
					</g>
				</g>
				<g>
					<g>
						<path style="fill:#455A64;" d="M212.215,437.837c0,0.145-5.314,0.261-11.866,0.261c-6.555,0-11.867-0.116-11.867-0.261
							c0-0.143,5.312-0.26,11.867-0.26C206.901,437.578,212.215,437.694,212.215,437.837z"/>
					</g>
				</g>
				<g>
					<g>
						<path style="fill:#455A64;" d="M177.146,442.281c0,0.145-5.154,0.261-11.512,0.261c-6.359,0-11.513-0.116-11.513-0.261
							c0-0.144,5.154-0.26,11.513-0.26C171.992,442.021,177.146,442.137,177.146,442.281z"/>
					</g>
				</g>
				<g>
					<g>
						<path style="fill:#455A64;" d="M174.094,441.921c-0.144,0.002-0.767-30.672-1.392-68.503
							c-0.625-37.845-1.015-68.517-0.871-68.519c0.144-0.002,0.767,30.665,1.392,68.51
							C173.848,411.241,174.238,441.918,174.094,441.921z"/>
					</g>
				</g>
				<g>
					<g>
						<path style="fill:#455A64;" d="M209.063,437.837c-0.009,0-0.012-0.139-0.011-0.408c0.005-0.295,0.013-0.691,0.022-1.198
							c0.031-1.081,0.076-2.627,0.133-4.604c0.14-4.025,0.34-9.803,0.588-16.931c0.547-14.317,1.302-34.052,2.136-55.85
							c0.008-0.201,0.016-0.402,0.023-0.588l0.008,0.074c-5.255-21.043-10.005-40.063-13.449-53.853
							c-1.69-6.869-3.059-12.435-4.013-16.313c-0.458-1.906-0.815-3.397-1.065-4.439c-0.112-0.489-0.199-0.872-0.264-1.157
							c-0.057-0.262-0.082-0.396-0.073-0.398c0.008-0.002,0.05,0.129,0.124,0.386c0.077,0.281,0.181,0.661,0.314,1.145
							c0.273,1.037,0.662,2.52,1.16,4.416c0.992,3.867,2.415,9.419,4.172,16.272c3.482,13.78,8.285,32.787,13.598,53.815
							l0.009,0.036l-0.001,0.038c-0.007,0.185-0.016,0.386-0.023,0.588c-0.893,21.795-1.702,41.526-2.289,55.843
							c-0.317,7.125-0.574,12.899-0.753,16.924c-0.1,1.976-0.177,3.52-0.231,4.601c-0.031,0.506-0.055,0.902-0.073,1.196
							C209.086,437.701,209.072,437.838,209.063,437.837z"/>
					</g>
				</g>
				<g>
					<g>
						<path style="fill:#455A64;" d="M201.414,356.5c0.024,0.142-2.297,0.658-5.185,1.154c-2.156,0.371-4.018,0.625-4.831,0.671
							l-0.001-0.203c0.27,0.074,0.415,0.132,0.409,0.168c-0.005,0.036-0.162,0.047-0.441,0.035l-0.606-0.026l0.605-0.177
							c0.782-0.229,2.622-0.61,4.778-0.98C199.028,356.645,201.389,356.357,201.414,356.5z"/>
					</g>
				</g>
				<g>
					<g>
						<path style="fill:#455A64;" d="M200.965,359.375c-0.02,0.145-2.103-0.016-4.668-0.213c-2.565-0.202-4.648-0.366-4.645-0.513
							c0.003-0.142,2.104-0.21,4.686-0.007C198.918,358.841,200.984,359.235,200.965,359.375z"/>
					</g>
				</g>
				<g>
					<path style="opacity:0.2;" d="M152.158,283.763c1.072,1.509,2.601,2.038,4.378,2.329c1.776,0.291,3.589,0.097,5.377-0.102
						c11.445-1.27,23.573-2.441,34.782-5.172c-14.509,0.813-29.831,0.539-44.34,1.352c0,0-0.124,0.998-0.153,1.238"/>
				</g>
				<g style="opacity:0.2;">
					<polygon points="167.114,304.214 175.288,335.947 174.716,305.551 					"/>
				</g>
			</g>
		</g>
	</g>
</g>
</svg>
